<svg fill="#000000" xmlns="http://www.w3.org/2000/svg"  viewBox="0 0 32 32" width="50px" height="50px"><path d="M 15.65625 3 C 15.441406 3.003906 15.171875 3.023438 14.8125 3.0625 C 14.097656 3.144531 13.117188 3.332031 12.0625 3.78125 C 10.023438 4.648438 7.671875 6.507813 6.1875 10.15625 C 5.5625 10.460938 4.949219 10.824219 4.40625 11.25 L 4.03125 11.53125 L 4.03125 12.03125 C 4.03125 12.535156 4 13.222656 4 14 C 4 14.757813 4.273438 15.378906 4.5625 15.84375 C 4.675781 16.027344 4.765625 16.175781 4.875 16.3125 L 3 21 C 3 21 3.835938 20.1875 5.125 19.15625 C 5.164063 19.523438 5.183594 19.894531 5.25 20.1875 C 5.410156 20.878906 5.78125 21.46875 5.78125 21.46875 L 6.0625 22 L 8.15625 22 L 14.15625 21 L 14.65625 20.90625 L 14.90625 20.4375 L 15.625 19 L 16.375 19 L 17.09375 20.4375 L 17.34375 20.90625 L 17.84375 21 L 23.84375 22 L 25.9375 22 L 26.21875 21.46875 C 26.21875 21.46875 26.589844 20.878906 26.75 20.1875 C 26.828125 19.847656 26.859375 19.429688 26.90625 19 C 26.953125 18.570313 27 18.324219 27 18 C 27 17.757813 26.890625 17.519531 26.75 17.34375 L 26.90625 16.53125 C 26.949219 16.484375 26.988281 16.425781 27.03125 16.375 C 27.175781 16.207031 27.332031 16.015625 27.46875 15.78125 C 27.746094 15.3125 28 14.726563 28 14 L 28 11.53125 L 27.625 11.25 C 27.203125 10.921875 26.757813 10.628906 26.28125 10.375 C 24.96875 6.707031 22.441406 4.785156 20.25 3.875 C 19.136719 3.410156 18.113281 3.199219 17.34375 3.09375 C 16.960938 3.039063 16.640625 3.011719 16.40625 3 C 16.171875 2.988281 15.945313 3 16 3 C 16.117188 3 16 3 15.9375 3 C 15.875 3 15.765625 3 15.65625 3 Z M 15.6875 5 C 15.765625 5 15.832031 5 15.875 5 C 15.917969 5 15.863281 5 16 5 C 16.09375 5 16.132813 4.992188 16.3125 5 C 16.492188 5.007813 16.746094 5.050781 17.0625 5.09375 C 17.699219 5.183594 18.550781 5.367188 19.46875 5.75 C 20.902344 6.347656 22.449219 7.382813 23.59375 9.34375 C 22.683594 9.113281 21.78125 9 21 9 L 21 11 C 22.347656 11 24.542969 11.640625 26 12.625 L 26 14 C 26 14.164063 25.910156 14.480469 25.75 14.75 C 25.738281 14.773438 25.734375 14.792969 25.71875 14.8125 C 24.296875 14.242188 20.726563 13 16 13 C 11.40625 13 7.714844 14.25 6.28125 14.8125 C 6.273438 14.800781 6.257813 14.792969 6.25 14.78125 C 6.101563 14.542969 6 14.269531 6 14 C 6 13.5 6.023438 13.066406 6.03125 12.625 C 7.484375 11.632813 9.542969 11 11 11 L 11 9 C 10.320313 9 9.589844 9.089844 8.84375 9.25 C 10.050781 7.214844 11.535156 6.179688 12.84375 5.625 C 13.683594 5.269531 14.46875 5.09375 15.03125 5.03125 C 15.3125 5 15.53125 5 15.6875 5 Z M 14 6.96875 L 14 8.96875 L 15 8.96875 L 15 12 L 17 12 L 17 8.96875 L 18 8.96875 L 18 6.96875 Z M 16 15 C 16.566406 15 17.09375 15.027344 17.625 15.0625 C 16.921875 15.960938 16 17 16 17 C 16 17 18.316406 16.246094 20.25 15.375 C 22.394531 15.734375 24.019531 16.253906 24.875 16.59375 L 24.1875 20 L 24.15625 20 L 18.65625 19.09375 L 17.90625 17.5625 L 17.625 17 L 14.375 17 L 14.09375 17.5625 L 13.34375 19.09375 L 7.84375 20 L 7.8125 20 L 7.3125 17.5625 C 8.5625 16.734375 9.988281 15.945313 11.4375 15.4375 C 11.667969 15.394531 11.882813 15.351563 12.125 15.3125 L 11 17 C 11 17 12.820313 15.945313 14.8125 15.0625 C 15.207031 15.042969 15.589844 15 16 15 Z M 12 17 C 11.449219 17 11 17.449219 11 18 C 11 18.550781 11.449219 19 12 19 C 12.550781 19 13 18.550781 13 18 C 13 17.449219 12.550781 17 12 17 Z M 20 17 C 19.449219 17 19 17.449219 19 18 C 19 18.550781 19.449219 19 20 19 C 20.550781 19 21 18.550781 21 18 C 21 17.449219 20.550781 17 20 17 Z M 13.84375 22 L 13.6875 22.0625 L 12.03125 22.5625 C 12.03125 22.5625 11.703125 22.671875 11.25 22.78125 C 10.796875 22.890625 10.207031 23 10 23 L 6 23 L 7.1875 24.59375 C 7.980469 25.648438 8.871094 26.460938 9.6875 27.03125 C 10.503906 27.601563 11.152344 28 12 28 C 12.0625 28 12.125 28.003906 12.1875 28 C 12.847656 28.347656 14.316406 29 16 29 C 17.992188 29 19.890625 28.152344 20.28125 27.96875 C 20.992188 27.886719 21.59375 27.535156 22.3125 27.03125 C 23.128906 26.460938 24.019531 25.648438 24.8125 24.59375 L 26 23 L 22 23 C 21.792969 23 21.203125 22.890625 20.75 22.78125 C 20.296875 22.671875 19.96875 22.5625 19.96875 22.5625 L 18.3125 22.0625 L 18.15625 22 Z M 14.125 24 L 15.6875 24 L 15.40625 24.1875 C 15.40625 24.1875 15.027344 24.457031 14.59375 24.75 C 14.160156 25.042969 13.53125 25.414063 13.625 25.375 C 12.871094 25.671875 12.320313 26 12 26 C 12.101563 26 11.476563 25.851563 10.84375 25.40625 C 10.695313 25.304688 10.53125 25.066406 10.375 24.9375 C 10.839844 24.894531 11.316406 24.847656 11.71875 24.75 C 12.234375 24.625 12.625 24.5 12.625 24.5 L 12.625 24.46875 L 12.65625 24.46875 Z M 16.3125 24 L 17.875 24 L 19.34375 24.46875 L 19.375 24.46875 L 19.375 24.5 C 19.375 24.5 19.765625 24.625 20.28125 24.75 C 20.683594 24.847656 21.160156 24.894531 21.625 24.9375 C 21.46875 25.066406 21.304688 25.304688 21.15625 25.40625 C 20.523438 25.851563 19.898438 26 20 26 C 19.679688 26 19.128906 25.671875 18.375 25.375 C 18.46875 25.414063 17.839844 25.042969 17.40625 24.75 C 16.972656 24.457031 16.59375 24.1875 16.59375 24.1875 Z M 16 26.25 C 16.121094 26.335938 16.136719 26.339844 16.28125 26.4375 C 16.511719 26.59375 16.726563 26.746094 16.9375 26.875 C 16.617188 26.933594 16.300781 27 16 27 C 15.679688 27 15.375 26.941406 15.0625 26.875 C 15.273438 26.746094 15.488281 26.59375 15.71875 26.4375 C 15.863281 26.339844 15.878906 26.335938 16 26.25 Z"/></svg>