<svg fill="#000000" xmlns="http://www.w3.org/2000/svg"  viewBox="0 0 32 32" width="50px" height="50px"><path d="M 16.1875 3.0234375 C 10.8485 3.0234375 5.6105469 6.2652031 3.6855469 12.283203 C 1.6975469 18.494203 5.0435469 24.698141 9.8105469 27.369141 C 11.201547 28.148141 13.548047 28.976562 16.248047 28.976562 C 19.617047 28.976562 23.535125 27.687203 26.828125 23.408203 C 27.104125 23.021203 27.298484 22.673 27.021484 22.375 C 26.951484 22.3 26.873437 22.265625 26.773438 22.265625 C 26.477438 22.265625 25.987734 22.565906 24.927734 23.003906 C 24.154734 23.322906 23.01275 23.492187 21.84375 23.492188 C 20.86775 23.492188 19.873594 23.374906 19.058594 23.128906 C 17.266594 22.587906 14.630078 21.664125 13.205078 18.078125 C 12.881142 17.262359 12.516698 15.422542 13.414062 14.175781 C 13.450177 14.132479 13.480664 14.090296 13.517578 14.046875 C 14.131235 13.279074 15.064752 12.708984 16.107422 12.708984 C 16.689422 12.708984 17.301203 12.884781 17.908203 13.300781 C 19.640203 14.487781 19.596297 16.365141 19.029297 17.369141 C 18.633297 18.069141 18.453813 18.238937 18.382812 18.335938 C 18.311812 18.433937 17.902141 18.873359 18.619141 19.318359 C 19.336141 19.763359 20.104062 20.213875 21.664062 20.296875 C 21.909063 20.309875 22.170312 20.318359 22.445312 20.318359 C 23.925313 20.318359 25.778969 20.041531 27.292969 18.519531 C 29.440969 16.359531 29.002641 13.395719 28.431641 11.761719 C 27.860641 10.127719 25.413922 4.5538125 18.669922 3.2578125 C 17.847922 3.1008125 17.0155 3.0234375 16.1875 3.0234375 z M 16.1875 5.0234375 C 16.8925 5.0234375 17.600016 5.0896563 18.291016 5.2226562 C 23.997016 6.3186563 26.049969 11.009875 26.542969 12.421875 C 26.854969 13.315875 27.414047 15.561328 25.873047 17.111328 C 25.041047 17.948328 23.984312 18.320312 22.445312 18.320312 C 22.207313 18.320312 21.980531 18.311781 21.769531 18.300781 C 21.405531 18.281781 21.113234 18.239734 20.865234 18.177734 C 21.755986 16.419912 21.580165 13.879488 19.650391 12.142578 C 18.225408 10.505314 15.682389 8.7815461 12.791016 8.2246094 L 12.789062 8.2246094 C 12.029498 8.078564 11.208961 8.0363815 10.376953 8.1113281 C 9.5783761 8.1832632 8.7702859 8.3749647 7.9882812 8.6699219 C 10.034888 6.377161 12.944812 5.0234375 16.1875 5.0234375 z M 11.53125 10.085938 C 11.835797 10.099183 12.131174 10.133417 12.412109 10.1875 C 13.16834 10.333028 13.922003 10.609764 14.638672 10.947266 C 13.722532 11.231862 12.87313 11.770901 12.193359 12.517578 L 12.185547 12.511719 C 12.112416 12.595088 12.057024 12.67833 11.986328 12.761719 C 11.940886 12.817512 11.89124 12.868031 11.847656 12.925781 C 11.83689 12.940055 11.830881 12.956348 11.820312 12.970703 C 8.8600491 16.565214 8.1129593 20.156069 8.8515625 23.037109 C 9.0115109 23.661014 9.2498877 24.238885 9.53125 24.785156 C 6.4050735 22.363248 4.1657462 17.887515 5.5078125 13.201172 L 5.5097656 13.201172 C 6.8132767 10.924152 9.3994178 9.993216 11.53125 10.085938 z M 11.099609 18.058594 C 11.171935 18.328099 11.252498 18.585816 11.345703 18.820312 C 13.184703 23.446313 16.761469 24.527875 18.480469 25.046875 C 19.619469 25.390875 20.798484 25.482141 21.646484 25.494141 C 20.010484 26.481141 18.206047 26.978516 16.248047 26.978516 C 15.827214 26.978516 15.429538 26.950181 15.044922 26.910156 C 13.143182 26.455356 11.378017 24.838329 10.789062 22.541016 C 10.459695 21.256264 10.500306 19.735322 11.099609 18.058594 z"/></svg>