<svg fill="#000000" xmlns="http://www.w3.org/2000/svg"  viewBox="0 0 32 32" width="50px" height="50px"><path d="M 16.105469 4.0058594 C 15.864074 4.0001475 15.620612 4.0114372 15.378906 4.0410156 C 14.734357 4.1198915 14.095265 4.326392 13.5 4.6699219 C 12.710555 5.1255135 12.165963 5.8027847 11.742188 6.5449219 L 11.667969 6.5039062 L 3.6679688 20.503906 L 3.7011719 20.523438 C 3.2811077 21.298754 3 22.134105 3 23 C 3 24.222222 3.402014 25.457882 4.2519531 26.414062 C 5.1018922 27.370244 6.4166671 28 8 28 C 9.5833329 28 10.898108 27.370244 11.748047 26.414062 C 11.995839 26.135298 12.125966 25.795616 12.298828 25.476562 L 12.332031 25.496094 L 16 19.078125 L 19.667969 25.498047 L 19.669922 25.5 C 21.044204 27.881342 24.118742 28.705556 26.5 27.330078 C 28.880043 25.956546 29.70436 22.884621 28.332031 20.503906 L 20.332031 6.5019531 L 20.330078 6.5 C 19.428156 4.9371585 17.795231 4.0458422 16.105469 4.0058594 z M 16.210938 6.0019531 C 16.402668 6.015065 16.592422 6.0461782 16.777344 6.0957031 C 17.517031 6.2938029 18.180835 6.7777364 18.597656 7.5 L 26.597656 21.498047 L 26.597656 21.5 C 27.432178 22.944742 26.944658 24.763938 25.5 25.597656 C 24.055258 26.432178 22.236062 25.944658 21.402344 24.5 L 13.402344 10.501953 L 13.402344 10.5 C 12.567822 9.055258 13.055342 7.2360616 14.5 6.4023438 C 15.041852 6.0896385 15.635745 5.9626176 16.210938 6.0019531 z M 11.464844 10.888672 C 11.547424 11.088949 11.557004 11.303595 11.667969 11.496094 L 11.669922 11.498047 C 11.669922 11.498047 11.669922 11.5 11.669922 11.5 L 14.849609 17.0625 L 12.589844 21.015625 C 12.384801 20.505279 12.126144 20.011296 11.748047 19.585938 C 10.898108 18.629756 9.5833329 18 8 18 C 7.7509611 18 7.5591792 18.106752 7.3242188 18.136719 L 11.464844 10.888672 z M 8 20 C 9.0833326 20 9.7685596 20.370244 10.251953 20.914062 C 10.735347 21.457881 11 22.222222 11 23 C 11 23.777778 10.735347 24.542118 10.251953 25.085938 C 9.7685596 25.629756 9.0833326 26 8 26 C 6.9166674 26 6.2314405 25.629756 5.7480469 25.085938 C 5.2646532 24.542119 5 23.777778 5 23 C 5 22.222222 5.2646532 21.457882 5.7480469 20.914062 C 6.2314405 20.370244 6.9166674 20 8 20 z"/></svg>