<svg fill="#000000" xmlns="http://www.w3.org/2000/svg"  viewBox="0 0 32 32" width="50px" height="50px"><path d="M 15 3 L 15 7 L 17 7 L 17 3 Z M 8.65625 5.242188 L 7.242188 6.65625 L 10 9.414063 L 11.414063 8 Z M 23.328125 5.257813 L 20.585938 8 L 22 9.414063 L 24.742188 6.671875 Z M 16 9 C 13.25 9 11 11.25 11 14 L 11 16 L 10 16 C 8.90625 16 8 16.90625 8 18 L 8 27 C 8 28.09375 8.90625 29 10 29 L 22 29 C 23.09375 29 24 28.09375 24 27 L 24 18 C 24 16.90625 23.09375 16 22 16 L 21 16 L 21 14 C 21 11.25 18.75 9 16 9 Z M 16 11 C 17.667969 11 19 12.332031 19 14 L 19 16 L 13 16 L 13 14 C 13 12.332031 14.332031 11 16 11 Z M 5 13 L 5 15 L 9 15 L 9 13 Z M 23 13 L 23 15 L 27 15 L 27 13 Z M 10 18 L 22 18 L 22 27 L 10 27 Z M 16 20 C 15.171875 20 14.5 20.671875 14.5 21.5 C 14.5 21.925781 14.683594 22.332031 15 22.613281 L 15 24 C 15 24.550781 15.449219 25 16 25 C 16.550781 25 17 24.550781 17 24 L 17 22.613281 C 17.316406 22.332031 17.5 21.925781 17.5 21.5 C 17.5 20.671875 16.828125 20 16 20 Z"/></svg>