<svg fill="#000000" xmlns="http://www.w3.org/2000/svg"  viewBox="0 0 32 32" width="50px" height="50px"><path d="M 23.066406 4.0058594 L 22.640625 4.3320312 L 11.933594 12.541016 L 6.0742188 9.0019531 L 3 10.345703 L 3 21.654297 L 6.0742188 22.998047 L 11.933594 19.458984 L 23.066406 27.994141 L 29 25.964844 L 29 6.0351562 L 23.066406 4.0058594 z M 23.433594 6.2441406 L 27 7.4648438 L 27 24.535156 L 23.433594 25.755859 L 12.066406 17.041016 L 5.9257812 20.751953 L 5 20.345703 L 5 11.654297 L 5.9257812 11.248047 L 12.066406 14.958984 L 23.433594 6.2441406 z M 23 11.283203 L 16.037109 16 L 23 20.716797 L 23 11.283203 z M 7 14.234375 L 7 17.765625 L 9.9238281 16 L 7 14.234375 z"/></svg>