<svg fill="#000000" xmlns="http://www.w3.org/2000/svg"  viewBox="0 0 32 32" width="50px" height="50px"><path d="M 17 9 C 13.981 9 11.415594 10.91575 10.433594 13.59375 C 9.8785937 13.22375 9.217 13 8.5 13 C 6.57 13 5 14.57 5 16.5 C 5 16.699 5.0167812 16.896797 5.0507812 17.091797 C 2.7457812 17.535797 1 19.567 1 22 C 1 22.319 1.0470469 22.648 1.1230469 23 L 30.787109 23 C 30.923109 22.523 31 22.021 31 21.5 C 31 19.685639 30.118192 18.081806 28.763672 17.080078 L 30.880859 16.130859 L 28.431641 16.033203 L 30.689453 14.394531 L 27.902344 15.117188 L 29.871094 12.707031 L 27.423828 14.056641 L 28.527344 11.501953 L 26.416016 13.525391 L 26.992188 10.488281 L 25.408203 13.044922 L 25.121094 10.007812 L 24.208984 12.755859 L 23.34375 10.054688 L 23.015625 12.433594 C 21.795547 10.380365 19.561681 9 17 9 z M 17 11 C 19.757 11 22 13.243 22 16 L 22 18 L 24 18 L 25.5 18 C 27.26 18 28.721844 19.306 28.964844 21 L 3.171875 21 C 3.518875 20.02 4.3636875 19.259688 5.4296875 19.054688 L 7.3613281 18.683594 L 7.0214844 16.744141 C 7.0074844 16.666141 7 16.585 7 16.5 C 7 15.673 7.673 15 8.5 15 C 8.791 15 9.0672656 15.086812 9.3222656 15.257812 L 11.435547 16.667969 L 12.310547 14.28125 C 13.030547 12.31825 14.916 11 17 11 z"/></svg>