<svg fill="#000000" xmlns="http://www.w3.org/2000/svg"  viewBox="0 0 32 32" width="50px" height="50px"><path d="M 11 8 C 6.582031 8 3 11.582031 3 16 C 3 20.417969 6.582031 24 11 24 C 12.902344 24 14.660156 23.359375 16.03125 22.25 C 17.398438 23.335938 19.128906 24 21 24 C 25.40625 24 29 20.40625 29 16 C 29 11.59375 25.40625 8 21 8 C 19.128906 8 17.398438 8.664063 16.03125 9.75 C 14.660156 8.640625 12.902344 8 11 8 Z M 21 10 C 24.324219 10 27 12.675781 27 16 C 27 19.324219 24.324219 22 21 22 C 19.644531 22 18.40625 21.53125 17.40625 20.78125 C 18.40625 19.445313 19 17.796875 19 16 C 19 14.203125 18.40625 12.554688 17.40625 11.21875 C 18.40625 10.46875 19.644531 10 21 10 Z"/></svg>