<svg fill="#000000" xmlns="http://www.w3.org/2000/svg"  viewBox="0 0 32 32" width="50px" height="50px"><path d="M 16 3 C 9.933594 3 5 7.933594 5 14 C 5 19.730469 9.402344 24.460938 15 24.96875 L 15 28.90625 L 16.375 28.375 C 23.132813 25.710938 27 20.46875 27 14 C 27 7.933594 22.066406 3 16 3 Z M 16 5 C 20.964844 5 25 9.039063 25 14 C 25 19.242188 22.175781 23.417969 17 25.90625 L 17 23 L 16 23 C 11.039063 23 7 18.964844 7 14 C 7 9.039063 11.039063 5 16 5 Z M 11 10 L 11 14 L 13 14 C 13 15.101563 12.101563 16 11 16 L 11 18 C 13.207031 18 15 16.207031 15 14 L 15 10 Z M 17 10 L 17 14 L 19 14 C 19 15.101563 18.101563 16 17 16 L 17 18 C 19.207031 18 21 16.207031 21 14 L 21 10 Z"/></svg>