<svg fill="#000000" xmlns="http://www.w3.org/2000/svg"  viewBox="0 0 32 32" width="50px" height="50px"><path d="M 8 3 C 6.90625 3 6 3.90625 6 5 L 6 27 C 6 28.09375 6.90625 29 8 29 L 24 29 C 25.09375 29 26 28.09375 26 27 L 26 9.59375 L 25.71875 9.28125 L 19.71875 3.28125 L 19.40625 3 Z M 8 5 L 17 5 L 17 10 C 17 11.09375 17.90625 12 19 12 L 24 12 L 24 27 L 8 27 Z M 19 5.4375 L 23.5625 10 L 19 10 Z M 11 15 L 11 17 L 21 17 L 21 15 Z M 11 18 L 11 20 L 21 20 L 21 18 Z M 11 21 L 11 23 L 16 23 L 16 21 Z"/></svg>