<svg fill="#000000" xmlns="http://www.w3.org/2000/svg"  viewBox="0 0 32 32" width="50px" height="50px"><path d="M 5 5 L 5 27 L 27 27 L 27 5 Z M 7 7 L 25 7 L 25 25 L 7 25 Z M 15 10 C 12.25 10 10 12.25 10 15 C 10 17.75 12.25 20 15 20 C 15.992188 20 16.910156 19.722656 17.6875 19.21875 L 20.5625 22 L 21.9375 20.5625 L 19.125 17.8125 C 19.679688 17.007813 20 16.046875 20 15 C 20 12.25 17.75 10 15 10 Z M 15 12 C 16.667969 12 18 13.332031 18 15 C 18 16.667969 16.667969 18 15 18 C 13.332031 18 12 16.667969 12 15 C 12 13.332031 13.332031 12 15 12 Z"/></svg>