<svg fill="#000000" xmlns="http://www.w3.org/2000/svg"  viewBox="0 0 32 32" width="50px" height="50px"><path d="M 12.800781 3 C 11.036985 3 9.6296249 5.0832753 9.1152344 8.2597656 L 5.8007812 9.1992188 L 3.4003906 26.199219 L 19 29 L 28.599609 27.099609 L 25.5 7.0996094 L 22.699219 6.6992188 L 20.599609 5 L 19.431641 5.3320312 C 18.695913 3.8438173 17.659454 3 16.5 3 C 16.001696 3 15.296296 3.1453859 14.613281 3.8222656 C 14.079545 3.29588 13.473033 3 12.800781 3 z M 12.900391 5 C 13.165961 5 13.743502 5.4734923 14.150391 6.8300781 L 11.275391 7.6464844 C 11.727369 5.842949 12.501879 5 12.900391 5 z M 16.5 5 C 16.69148 5 17.04878 5.2854228 17.410156 5.9042969 L 16.03125 6.296875 C 15.922597 5.9804534 15.80502 5.6828 15.677734 5.4082031 L 15.800781 5.5 C 16.000781 5.2 16.3 5 16.5 5 z M 19.226562 7.359375 L 18.044922 26.820312 L 5.6992188 24.5 L 7.5996094 10.800781 L 19.226562 7.359375 z M 21.189453 7.9960938 L 21.800781 8.5 L 23.699219 8.8007812 L 26.300781 25.599609 L 20.048828 26.798828 L 21.189453 7.9960938 z M 14.5 11.900391 C 11.5 11.900391 10 13.800391 10 15.900391 C 10 18.400391 12.400391 18.400391 12.400391 19.900391 C 12.400391 20.300391 12.1 20.800781 11.5 20.800781 C 10.5 20.800781 9.4003906 19.800781 9.4003906 19.800781 L 8.8007812 21.699219 C 8.8007812 21.699219 9.8996094 23 12.099609 23 C 13.899609 23 15.199219 21.6 15.199219 19.5 C 15.199219 16.9 12.199219 16.400781 12.199219 15.300781 C 12.199219 15.100781 12.299609 14.300781 13.599609 14.300781 C 14.499609 14.300781 15.199219 14.699219 15.199219 14.699219 L 16 12.199219 C 16 12.199219 15.4 11.900391 14.5 11.900391 z"/></svg>