<svg fill="#000000" xmlns="http://www.w3.org/2000/svg"  viewBox="0 0 32 32" width="50px" height="50px"><path d="M 16 4 C 9.4091152 4 4 9.1348104 4 15.5 C 4 18.890016 5.5713181 21.912497 8 24.011719 L 8 28.617188 L 12.443359 26.398438 C 13.572227 26.739296 14.746657 27 16 27 C 22.590885 27 28 21.86519 28 15.5 C 28 9.1348104 22.590885 4 16 4 z M 16 6 C 21.559115 6 26 10.26719 26 15.5 C 26 20.73281 21.559115 25 16 25 C 14.804289 25 13.66193 24.790507 12.591797 24.421875 L 12.195312 24.285156 L 10 25.382812 L 10 23.115234 L 9.6191406 22.814453 C 7.3990263 21.064171 6 18.441595 6 15.5 C 6 10.26719 10.440885 6 16 6 z M 14.861328 12.357422 L 8.8457031 18.730469 L 14.255859 15.703125 L 17.138672 18.800781 L 23.083984 12.357422 L 17.8125 15.3125 L 14.861328 12.357422 z"/></svg>